HIERARCHY
ROOT Hips
{
  OFFSET 5.84602e-005 68.8428 3.50346
  CHANNELS 6 Xposition Yposition Zposition Zrotation Xrotation Yrotation
  JOINT Spine
  {
    OFFSET 0 8.597 -4.6522
    CHANNELS 3 Zrotation Xrotation Yrotation
    JOINT Spine1
    {
      OFFSET 0 7.8454 0.4098
      CHANNELS 3 Zrotation Xrotation Yrotation
      JOINT Spine2
      {
        OFFSET 0 9.7078 -2.1609
        CHANNELS 3 Zrotation Xrotation Yrotation
        JOINT Neck
        {
          OFFSET 0 21.8761 -0.4549
          CHANNELS 3 Zrotation Xrotation Yrotation
          JOINT Head
          {
            OFFSET 0 12.3537 3.3602
            CHANNELS 3 Zrotation Xrotation Yrotation
            End Site
            {
              OFFSET 0.0001 18.9506 0.5657
            }
          }
        }
        JOINT LeftShoulder
        {
          OFFSET 2.2086 21.1115 7.2329
          CHANNELS 3 Zrotation Xrotation Yrotation
          JOINT LeftArm
          {
            OFFSET 13.1193 3.0282 -4.8998
            CHANNELS 3 Zrotation Xrotation Yrotation
            JOINT LeftForeArm
            {
              OFFSET 27.4081 -0.0973053 -0.2375
              CHANNELS 3 Zrotation Xrotation Yrotation
              JOINT LeftHand
              {
                OFFSET 22.8641 0.0662994 -0.1369
                CHANNELS 3 Zrotation Xrotation Yrotation
                JOINT LeftHandIndex1
                {
                  OFFSET 8.8614 0.775009 2.4612
                  CHANNELS 3 Zrotation Xrotation Yrotation
                  JOINT LeftHandIndex2
                  {
                    OFFSET 3.3146 -0.808304 0.5841
                    CHANNELS 3 Zrotation Xrotation Yrotation
                    JOINT LeftHandIndex3
                    {
                      OFFSET 2.2628 -0.552002 0.3989
                      CHANNELS 3 Zrotation Xrotation Yrotation
                      End Site
                      {
                        OFFSET 1.6102 -0.4807 0.2612
                      }
                    }
                  }
                }
                JOINT LeftHandMiddle1
                {
                  OFFSET 8.9937 0.895004 0.2143
                  CHANNELS 3 Zrotation Xrotation Yrotation
                  JOINT LeftHandMiddle2
                  {
                    OFFSET 4.0984 0.0113983 -0.0242
                    CHANNELS 3 Zrotation Xrotation Yrotation
                    JOINT LeftHandMiddle3
                    {
                      OFFSET 2.2716 0.00689697 -0.0138001
                      CHANNELS 3 Zrotation Xrotation Yrotation
                      End Site
                      {
                        OFFSET 2.0404 -0.1441 0.0027
                      }
                    }
                  }
                }
                JOINT LeftHandRing1
                {
                  OFFSET 8.5234 0.597198 -2.0164
                  CHANNELS 3 Zrotation Xrotation Yrotation
                  JOINT LeftHandRing2
                  {
                    OFFSET 3.7188 -0.188293 -0.2328
                    CHANNELS 3 Zrotation Xrotation Yrotation
                    JOINT LeftHandRing3
                    {
                      OFFSET 2.1191 -0.106598 -0.1332
                      CHANNELS 3 Zrotation Xrotation Yrotation
                      End Site
                      {
                        OFFSET 1.8737 -0.2304 -0.0886
                      }
                    }
                  }
                }
                JOINT LeftHandPinky1
                {
                  OFFSET 7.9094 -0.601089 -3.4825
                  CHANNELS 3 Zrotation Xrotation Yrotation
                  JOINT LeftHandPinky2
                  {
                    OFFSET 2.2874 -0.477005 -0.6314
                    CHANNELS 3 Zrotation Xrotation Yrotation
                    JOINT LeftHandPinky3
                    {
                      OFFSET 1.6774 -0.349396 -0.4633
                      CHANNELS 3 Zrotation Xrotation Yrotation
                      End Site
                      {
                        OFFSET 1.4888 -0.4091 -0.3416
                      }
                    }
                  }
                }
                JOINT LeftHandThumb1
                {
                  OFFSET 1.833 -1.3875 1.3896
                  CHANNELS 3 Zrotation Xrotation Yrotation
                  JOINT LeftHandThumb2
                  {
                    OFFSET 3.4129 -1.121 2.5732
                    CHANNELS 3 Zrotation Xrotation Yrotation
                    JOINT LeftHandThumb3
                    {
                      OFFSET 2.2474 -0.804199 1.6192
                      CHANNELS 3 Zrotation Xrotation Yrotation
                      End Site
                      {
                        OFFSET 1.6527 -0.5689 1.1317
                      }
                    }
                  }
                }
              }
            }
          }
        }
        JOINT RightShoulder
        {
          OFFSET -2.2086 21.1115 7.2329
          CHANNELS 3 Zrotation Xrotation Yrotation
          JOINT RightArm
          {
            OFFSET -13.1216 3.0287 -4.9007
            CHANNELS 3 Zrotation Xrotation Yrotation
            JOINT RightForeArm
            {
              OFFSET -27.4081 -0.0973053 -0.2375
              CHANNELS 3 Zrotation Xrotation Yrotation
              JOINT RightHand
              {
                OFFSET -22.8641 0.0664063 -0.1369
                CHANNELS 3 Zrotation Xrotation Yrotation
                JOINT RightHandIndex1
                {
                  OFFSET -8.8614 0.774994 2.4612
                  CHANNELS 3 Zrotation Xrotation Yrotation
                  JOINT RightHandIndex2
                  {
                    OFFSET -3.3146 -0.808304 0.5841
                    CHANNELS 3 Zrotation Xrotation Yrotation
                    JOINT RightHandIndex3
                    {
                      OFFSET -2.2628 -0.552002 0.3989
                      CHANNELS 3 Zrotation Xrotation Yrotation
                      End Site
                      {
                        OFFSET -1.6102 -0.4807 0.2612
                      }
                    }
                  }
                }
                JOINT RightHandMiddle1
                {
                  OFFSET -8.9937 0.894989 0.2143
                  CHANNELS 3 Zrotation Xrotation Yrotation
                  JOINT RightHandMiddle2
                  {
                    OFFSET -4.0984 0.0113983 -0.0242
                    CHANNELS 3 Zrotation Xrotation Yrotation
                    JOINT RightHandMiddle3
                    {
                      OFFSET -2.2716 0.00691223 -0.0138001
                      CHANNELS 3 Zrotation Xrotation Yrotation
                      End Site
                      {
                        OFFSET -2.0404 -0.1441 0.0027
                      }
                    }
                  }
                }
                JOINT RightHandRing1
                {
                  OFFSET -8.5234 0.597198 -2.0164
                  CHANNELS 3 Zrotation Xrotation Yrotation
                  JOINT RightHandRing2
                  {
                    OFFSET -3.7188 -0.188309 -0.2328
                    CHANNELS 3 Zrotation Xrotation Yrotation
                    JOINT RightHandRing3
                    {
                      OFFSET -2.1191 -0.106598 -0.1332
                      CHANNELS 3 Zrotation Xrotation Yrotation
                      End Site
                      {
                        OFFSET -1.8737 -0.2304 -0.0886
                      }
                    }
                  }
                }
                JOINT RightHandPinky1
                {
                  OFFSET -7.9094 -0.601105 -3.4825
                  CHANNELS 3 Zrotation Xrotation Yrotation
                  JOINT RightHandPinky2
                  {
                    OFFSET -2.2874 -0.477005 -0.6314
                    CHANNELS 3 Zrotation Xrotation Yrotation
                    JOINT RightHandPinky3
                    {
                      OFFSET -1.6774 -0.349396 -0.4633
                      CHANNELS 3 Zrotation Xrotation Yrotation
                      End Site
                      {
                        OFFSET -1.4888 -0.4091 -0.3416
                      }
                    }
                  }
                }
                JOINT RightHandThumb1
                {
                  OFFSET -1.833 -1.38751 1.3896
                  CHANNELS 3 Zrotation Xrotation Yrotation
                  JOINT RightHandThumb2
                  {
                    OFFSET -3.41299 -1.12099 2.5732
                    CHANNELS 3 Zrotation Xrotation Yrotation
                    JOINT RightHandThumb3
                    {
                      OFFSET -2.24741 -0.804108 1.6192
                      CHANNELS 3 Zrotation Xrotation Yrotation
                      End Site
                      {
                        OFFSET -1.6527 -0.5689 1.1317
                      }
                    }
                  }
                }
              }
            }
          }
        }
      }
    }
  }
  JOINT RightUpLeg
  {
    OFFSET -9.1966 3.8861 -0.7581
    CHANNELS 3 Zrotation Xrotation Yrotation
    JOINT RightLeg
    {
      OFFSET -0.7359 -41.0265 0
      CHANNELS 3 Zrotation Xrotation Yrotation
      JOINT RightFoot
      {
        OFFSET 0 -40.2855 0
        CHANNELS 3 Zrotation Xrotation Yrotation
        JOINT RightToeBase
        {
          OFFSET 0 -5.6122 11.7359
          CHANNELS 3 Zrotation Xrotation Yrotation
          End Site
          {
            OFFSET 0 0 7.8731
          }
        }
      }
    }
  }
  JOINT LeftUpLeg
  {
    OFFSET 9.1965 3.8864 -0.7581
    CHANNELS 3 Zrotation Xrotation Yrotation
    JOINT LeftLeg
    {
      OFFSET 0.7359 -41.0268 0
      CHANNELS 3 Zrotation Xrotation Yrotation
      JOINT LeftFoot
      {
        OFFSET 0 -40.2855 0
        CHANNELS 3 Zrotation Xrotation Yrotation
        JOINT LeftToeBase
        {
          OFFSET 0 -5.6122 11.7359
          CHANNELS 3 Zrotation Xrotation Yrotation
          End Site
          {
            OFFSET 0 0 7.8731
          }
        }
      }
    }
  }
}
MOTION
Frames:	4
Frame Time:	0.0333333
5.84602e-005 68.8428 3.50346 0 0 -0 0 0 -0 0 0 -0 0 0 -0 0 0 -0 0 0 -0 0 0 -0 0 0 -0 0 0 -0 0 0 -0 0 0 -0 0 0 -0 0 0 -0 0 0 -0 -0.0146107 -8.87603e-005 -2.63497e-007 2.99804e-018 -2.42657e-020 -1.42182e-022 0 0 -0 -0.0187562 -0.001176 5.858e-005 5.06224e-018 3.88251e-019 1.21329e-020 0 0 -0 -0.012269 -0.00324817 0.000675346 -1.74678e-018 3.88251e-019 -0 0 0 -0 0 0 -0 0 0 -0 0 0 -0 0 0 -0 0 0 -0 0 0 -0 0 0 -0 0 0 -0 0 0 -0 0 0 -0 0.0149955 -9.10982e-005 2.64101e-007 -9.69331e-018 1.21329e-020 -4.7394e-023 0 0 -0 0.0189956 -0.00119102 -5.96516e-005 -5.41541e-019 0 2.42657e-020 0 0 -0 0.0122698 -0.00324857 -0.000673756 -2.00796e-019 0 -1.94126e-019 0 0 -0 0 0 -0 0 0 -0 3.39842 1.33031 -0.0637918 -5.65207e-008 0.834868 -0.000436188 -3.39935 -2.16518 -0.0642563 -8.89002e-024 -1.18485e-023 -1.48106e-024 -3.39844 1.35642 0.0640283 -3.18788e-007 0.782166 -0.000588827 3.39931 -2.13858 0.0634662 1.1399e-023 0 -0 
4.30348 84.3813 -0.122761 133.333 0.0398481 6.21124e-010 0.00406736 -1.81839 -0.205911 0.00153168 -3.63678 -0.412007 0.00155512 -3.63677 -0.412006 0.000140065 36.2936 -0.000107861 -8.2859e-006 -42.8285 -4.27799e-006 -16.0149 7.90621 8.20034 -0.694867 3.50827 -53.9645 -8.53223 -9.0919 -25.0933 -31.1501 -22.0525 -31.1954 6.36111e-015 5.09386e-016 1.49089e-016 3.18055e-015 1.92573e-016 -2.29845e-015 3.18055e-015 -7.20594e-016 -1.61513e-016 6.36111e-015 5.09386e-016 1.49089e-016 -0.0145752 -8.99668e-005 -5.37401e-006 3.18055e-015 6.14369e-015 2.13694e-015 6.36111e-015 5.09386e-016 1.49089e-016 -0.0187496 -0.00116744 5.97751e-005 -3.18055e-015 4.26145e-015 1.86361e-016 6.36111e-015 5.09386e-016 1.49089e-016 -0.0122915 -0.0032574 0.000681389 3.18055e-015 -6.57853e-015 -1.67725e-015 6.36111e-015 5.09386e-016 1.49089e-016 3.18055e-015 1.92573e-016 -2.29845e-015 3.18055e-015 -7.20594e-016 -1.61513e-016 15.9061 7.52985 -8.01314 0.674327 3.52759 53.9915 8.48249 -9.19422 24.978 31.5683 -21.5043 30.522 5.96493e-007 5.78657e-007 -1.92559e-007 -3.18055e-015 -3.67752e-015 9.93923e-016 5.96493e-007 5.78657e-007 -1.92559e-007 5.96493e-007 5.78657e-007 -1.92559e-007 0.0150295 -9.1371e-005 -1.49839e-006 5.96488e-007 5.78632e-007 -1.92636e-007 5.96493e-007 5.78657e-007 -1.92559e-007 0.0190084 -0.00119166 -5.53613e-005 5.96485e-007 5.78626e-007 -1.92661e-007 5.96493e-007 5.78657e-007 -1.92559e-007 0.0122275 -0.00323618 -0.000679067 5.9648e-007 5.78641e-007 -1.92638e-007 5.96493e-007 5.78657e-007 -1.92559e-007 -3.18055e-015 -3.67752e-015 9.93923e-016 5.96493e-007 5.78657e-007 -1.92559e-007 -24.6172 -54.7604 -8.60552 66.0688 40.3945 -62.6116 -17.8669 32.1525 21.3082 -6.33733e-008 -3.31613e-006 7.10209e-008 25.6214 -47.9047 10.7005 -56.6043 29.493 57.2315 16.6285 33.7229 -21.1658 1.06273e-006 -3.50912e-006 6.04413e-007 
-2.302 88.478 -1.85686 -166.667 -0.139464 6.93544e-010 -0.0160637 -2.49628 -0.299946 -0.0452943 -4.99246 -0.60145 -0.0452976 -4.99246 -0.601449 8.80141e-006 52.6257 -9.49499e-006 5.7623e-006 -62.7741 2.28794e-006 -23.8097 10.9738 11.9876 0.462807 1.782 -78.1665 -15.0154 -11.6258 -37.2267 -52.7055 -26.8108 -47.8354 6.53486e-007 -1.35382e-007 -5.24002e-007 -1.56188e-006 9.27609e-007 -1.24093e-006 6.53486e-007 -1.35382e-007 -5.24002e-007 6.53486e-007 -1.35382e-007 -5.24002e-007 -0.0146539 -8.83494e-005 -4.66888e-006 6.53498e-007 -1.35315e-007 -5.2402e-007 6.53486e-007 -1.35382e-007 -5.24002e-007 -0.0187524 -0.00116798 5.63762e-005 6.53496e-007 -1.35295e-007 -5.24031e-007 6.53486e-007 -1.35382e-007 -5.24002e-007 -0.0122468 -0.00324328 0.000674383 6.5348e-007 -1.35327e-007 -5.24036e-007 6.53486e-007 -1.35382e-007 -5.24002e-007 -1.56188e-006 9.27609e-007 -1.24093e-006 6.53486e-007 -1.35382e-007 -5.24002e-007 23.615 10.437 -11.7472 -0.500416 1.78745 78.2043 14.9783 -11.7613 37.1237 52.9605 -26.4002 46.7018 -5.37289e-007 2.50239e-007 -6.13668e-007 -2.68644e-007 1.25119e-007 -3.06834e-007 -5.37289e-007 2.50239e-007 -6.13668e-007 -5.37289e-007 2.50239e-007 -6.13668e-007 0.014948 -8.38965e-005 -1.38218e-006 -5.37294e-007 2.50159e-007 -6.13701e-007 -5.37289e-007 2.50239e-007 -6.13668e-007 0.0190013 -0.00119236 -5.87355e-005 -5.37301e-007 2.50137e-007 -6.13704e-007 -5.37289e-007 2.50239e-007 -6.13668e-007 0.0122171 -0.00323205 -0.000676201 -5.37311e-007 2.50171e-007 -6.1368e-007 -5.37289e-007 2.50239e-007 -6.13668e-007 -2.68644e-007 1.25119e-007 -3.06834e-007 -5.37289e-007 2.50239e-007 -6.13668e-007 -54.7012 -77.0232 -26.8427 107.392 30.6067 -88.3254 -35.446 44.7235 38.0133 3.18055e-015 0 7.95139e-015 55.5562 -68.8869 29.0366 -95.0274 20.8494 82.6466 35.1936 44.716 -37.8559 -1.90833e-014 -9.54166e-015 -2.54444e-014 
-0.775379 88.2962 -1.61883 180 -0.537949 -7.01671e-015 -0.0124816 -2.03416 -0.279246 -0.0349236 -4.06825 -0.559464 -0.0349236 -4.06825 -0.559464 -1.01663e-006 48.9963 1.80435e-006 2.22995e-007 -59.8375 2.15609e-007 -21.699 9.49876 11.0843 0.241987 2.38758 -72.8133 -13.7633 -10.9765 -35.4902 -46.993 -26.7275 -43.7974 -1.50903e-006 -1.25718e-006 -7.99656e-007 -2.30023e-006 -5.82637e-008 -2.34812e-007 -2.30023e-006 -5.82637e-008 -2.34812e-007 -1.50903e-006 -1.25718e-006 -7.99656e-007 -0.0146499 -8.80001e-005 -2.31909e-006 -2.30032e-006 -5.82343e-008 -2.34817e-007 -1.50903e-006 -1.25718e-006 -7.99656e-007 -0.0187127 -0.00118049 5.65425e-005 -1.50748e-006 -1.25695e-006 -7.9985e-007 -1.50903e-006 -1.25718e-006 -7.99656e-007 -0.0122052 -0.00323415 0.000674025 -2.30031e-006 -5.82448e-008 -2.34749e-007 -1.50903e-006 -1.25718e-006 -7.99656e-007 -2.30023e-006 -5.82637e-008 -2.34812e-007 -2.30023e-006 -5.82637e-008 -2.34812e-007 21.5581 8.99155 -10.9561 -0.276233 2.39757 72.8491 13.7558 -11.0834 35.5081 47.2542 -26.3223 42.7302 -1.5878e-006 -8.9989e-007 -6.17404e-007 6.36111e-015 0 1.59028e-015 6.36111e-015 -1.59028e-015 -0 -1.5878e-006 -8.9989e-007 -6.17404e-007 0.0150036 -9.47769e-005 -4.13422e-006 2.20695e-032 -1.59028e-015 7.95139e-016 -1.5878e-006 -8.9989e-007 -6.17404e-007 0.0189999 -0.00119407 -5.854e-005 1.58957e-006 8.99883e-007 6.17233e-007 -1.5878e-006 -8.9989e-007 -6.17404e-007 0.0122248 -0.00323309 -0.000670654 4.41391e-032 1.59028e-015 -1.59028e-015 -1.5878e-006 -8.9989e-007 -6.17404e-007 6.36111e-015 0 1.59028e-015 6.36111e-015 -1.59028e-015 -0 -42.4914 -72.073 -17.8163 98.6508 33.9756 -84.3732 -31.1628 42.5583 34.002 1.51218e-006 -5.1702e-007 -2.87594e-006 45.039 -64.02 21.7098 -86.8323 24.0128 78.1039 30.9962 42.7166 -33.9369 -2.08404e-006 -4.1664e-006 1.54051e-006 
